<svg aria-hidden="true" style="position: absolute; width: 0; height: 0; overflow: hidden;" version="1.1" xmlns="http://www.w3.org/2000/svg" xmlns:xlink="http://www.w3.org/1999/xlink">
<defs>
<symbol id="icon-logo-modal" viewBox="0 0 88 32">
<path fill="#fff" style="fill: var(--color1, #fff)" d="M12.345 4.825v12.913h-3.67v-5.036h-5.005v5.036h-3.67v-12.913h3.67v4.851h5.005v-4.851h3.67z"></path>
<path fill="#fff" style="fill: var(--color1, #fff)" d="M25.777 12.757c0 0.025-0.019 0.314-0.056 0.867h-7.303c0.148 0.517 0.433 0.916 0.853 1.199 0.433 0.271 0.97 0.406 1.613 0.406 0.482 0 0.896-0.068 1.242-0.203 0.358-0.135 0.717-0.357 1.075-0.664l1.854 1.918c-0.976 1.082-2.403 1.623-4.282 1.623-1.174 0-2.206-0.221-3.096-0.664s-1.582-1.058-2.076-1.845c-0.482-0.787-0.723-1.679-0.723-2.675 0-0.984 0.235-1.863 0.704-2.638 0.482-0.787 1.143-1.402 1.983-1.845s1.786-0.664 2.836-0.664c1.001 0 1.909 0.209 2.725 0.627 0.816 0.406 1.458 1.002 1.928 1.789 0.482 0.775 0.723 1.697 0.723 2.767zM20.42 10.064c-0.544 0-1.001 0.154-1.372 0.461-0.358 0.307-0.587 0.726-0.686 1.254h4.115c-0.099-0.529-0.334-0.947-0.704-1.254-0.358-0.307-0.809-0.461-1.353-0.461z"></path>
<path fill="#fff" style="fill: var(--color1, #fff)" d="M28.142 4.050h3.522v13.688h-3.522v-13.688z"></path>
<path fill="#fff" style="fill: var(--color1, #fff)" d="M34.694 4.050h3.522v13.688h-3.522v-13.688z"></path>
<path fill="#ff6b09" style="fill: var(--color2, #ff6b09)" d="M4 27.066v3.862h-0.894v-1.583h-1.754v1.583h-0.894v-3.862h0.894v1.523h1.754v-1.523h0.894zM8.897 30.211v0.717h-2.99v-3.862h2.919v0.717h-2.030v0.839h1.793v0.695h-1.793v0.894h2.102zM10.601 27.066h0.894v3.134h1.937v0.728h-2.83v-3.862zM14.924 27.066h0.894v3.134h1.937v0.728h-2.83v-3.862zM19.247 27.066h0.894v3.862h-0.894v-3.862zM23.32 30.995c-0.305 0-0.601-0.041-0.888-0.121-0.283-0.085-0.511-0.193-0.684-0.326l0.303-0.673c0.166 0.121 0.362 0.219 0.59 0.292s0.456 0.11 0.684 0.11c0.254 0 0.441-0.037 0.563-0.11 0.121-0.077 0.182-0.178 0.182-0.303 0-0.092-0.037-0.167-0.11-0.226-0.070-0.063-0.162-0.112-0.276-0.149-0.11-0.037-0.261-0.077-0.452-0.121-0.294-0.070-0.535-0.14-0.723-0.21s-0.349-0.182-0.486-0.337c-0.132-0.154-0.199-0.36-0.199-0.618 0-0.224 0.061-0.427 0.182-0.607 0.121-0.184 0.303-0.329 0.546-0.436 0.246-0.107 0.546-0.16 0.899-0.16 0.246 0 0.487 0.029 0.723 0.088s0.441 0.143 0.618 0.254l-0.276 0.679c-0.357-0.202-0.714-0.303-1.070-0.303-0.25 0-0.436 0.041-0.557 0.121-0.118 0.081-0.177 0.188-0.177 0.32s0.068 0.232 0.204 0.298c0.14 0.063 0.351 0.125 0.634 0.188 0.294 0.070 0.535 0.14 0.723 0.21s0.348 0.18 0.48 0.331c0.136 0.151 0.204 0.355 0.204 0.612 0 0.221-0.063 0.423-0.188 0.607-0.121 0.18-0.305 0.324-0.552 0.43s-0.546 0.16-0.899 0.16zM30.104 27.066v3.862h-0.894v-1.583h-1.754v1.583h-0.894v-3.862h0.894v1.523h1.754v-1.523h0.894z"></path>
<path fill="#fff" style="fill: var(--color1, #fff)" d="M37.557 30.211v0.717h-2.99v-3.862h2.919v0.717h-2.030v0.839h1.793v0.695h-1.793v0.894h2.102zM42.803 27.066v3.862h-0.734l-1.926-2.345v2.345h-0.883v-3.862h0.739l1.92 2.345v-2.345h0.883zM47.32 28.937h0.817v1.567c-0.21 0.158-0.452 0.279-0.728 0.364s-0.554 0.127-0.833 0.127c-0.401 0-0.761-0.085-1.081-0.254-0.32-0.173-0.572-0.41-0.756-0.712-0.18-0.305-0.27-0.649-0.27-1.032s0.090-0.725 0.27-1.026c0.184-0.305 0.438-0.543 0.761-0.712 0.324-0.173 0.688-0.259 1.092-0.259 0.338 0 0.646 0.057 0.921 0.171s0.508 0.279 0.695 0.497l-0.574 0.53c-0.276-0.291-0.609-0.436-0.999-0.436-0.246 0-0.465 0.052-0.657 0.154s-0.34 0.248-0.447 0.436c-0.107 0.188-0.16 0.403-0.16 0.646 0 0.239 0.053 0.452 0.16 0.64s0.254 0.335 0.441 0.441c0.191 0.103 0.408 0.154 0.651 0.154 0.257 0 0.489-0.055 0.695-0.166v-1.131zM49.96 27.066h0.894v3.134h1.937v0.728h-2.83v-3.862zM54.282 27.066h0.894v3.862h-0.894v-3.862zM58.355 30.995c-0.305 0-0.601-0.041-0.888-0.121-0.283-0.085-0.511-0.193-0.684-0.326l0.303-0.673c0.166 0.121 0.362 0.219 0.59 0.292s0.456 0.11 0.684 0.11c0.254 0 0.441-0.037 0.563-0.11 0.121-0.077 0.182-0.178 0.182-0.303 0-0.092-0.037-0.167-0.11-0.226-0.070-0.063-0.162-0.112-0.276-0.149-0.11-0.037-0.261-0.077-0.452-0.121-0.294-0.070-0.535-0.14-0.723-0.21s-0.349-0.182-0.486-0.337c-0.132-0.154-0.199-0.36-0.199-0.618 0-0.224 0.061-0.427 0.182-0.607 0.121-0.184 0.303-0.329 0.546-0.436 0.246-0.107 0.546-0.16 0.899-0.16 0.246 0 0.487 0.029 0.723 0.088s0.441 0.143 0.618 0.254l-0.276 0.679c-0.357-0.202-0.714-0.303-1.070-0.303-0.25 0-0.436 0.041-0.557 0.121-0.118 0.081-0.177 0.188-0.177 0.32s0.068 0.232 0.204 0.298c0.14 0.063 0.351 0.125 0.634 0.188 0.294 0.070 0.535 0.14 0.723 0.21s0.348 0.18 0.48 0.331c0.136 0.151 0.204 0.355 0.204 0.612 0 0.221-0.062 0.423-0.188 0.607-0.121 0.18-0.305 0.324-0.552 0.43s-0.546 0.16-0.899 0.16zM65.139 27.066v3.862h-0.894v-1.583h-1.754v1.583h-0.894v-3.862h0.894v1.523h1.754v-1.523h0.894z"></path>
<path fill="#fff" style="fill: var(--color1, #fff)" d="M73.153 14.915v2.822h-10.417v-12.913h10.176v2.822h-6.543v2.177h5.765v2.73h-5.765v2.361h6.784z"></path>
<path fill="#fff" style="fill: var(--color1, #fff)" d="M88.276 4.824v12.913h-3.021l-5.728-6.881v6.881h-3.596v-12.913h3.021l5.728 6.881v-6.881h3.596z"></path>
<path fill="#ff6b09" style="fill: var(--color2, #ff6b09)" d="M57.546 11.037c-0.189-0.422-0.451-0.838-0.833-1.319-0.964-1.206-1.258-3.896-1.261-3.922-0.013-0.129-0.105-0.235-0.225-0.274-0.124-0.039-0.258-0.003-0.346 0.094-1.15 1.28-0.667 3.257-0.405 4.047 0.072 0.216 0.15 0.471 0.206 0.729 0.425 2.086-0.395 3.031-0.588 3.222-0.186 0.052-0.314 0.026-0.431-0.1-0.405-0.442-0.539-1.89-0.35-3.776 0.039-0.384 0.029-0.729-0.026-1.051-0.4-2.319-1.865-3.806-2.238-4.328-1.026-1.509-1.131-4.022-1.134-4.044-0.003-0.119-0.072-0.226-0.18-0.277-0.105-0.052-0.232-0.045-0.33 0.023-1.712 1.158-1.565 3.947-1.327 5.505 0.056 0.361 0.163 0.729 0.35 1.193 0.663 1.661-0.131 3.805-0.137 3.825s-0.013 0.035-0.016 0.055c-0.101 0.529-0.271 0.845-0.461 0.845-0.020 0-0.039-0.003-0.062-0.010-0.232-0.048-0.353-0.294-0.356-0.506-0.013-2.751-2.787-3.676-2.817-3.686-0.124-0.039-0.261-0.003-0.346 0.097-0.088 0.1-0.105 0.239-0.046 0.355 0.033 0.068 0.137 0.364 0.065 1.413-0.062 0.942-0.235 1.874-0.513 2.767-0.66 2.141-0.555 4.17-0.549 4.267 0.507 5.492 8.444 6.455 13.155 3.36 0.516-0.339 0.938-0.726 1.248-1.151 1.738-2.387 0.716-5.628-0.046-7.35zM45.473 16.284c0.010 0.177-0.127 0.329-0.307 0.339h-0.020c-0.173 0-0.317-0.132-0.327-0.303-0.029-0.471-0.023-0.964 0.013-1.5 0.013-0.177 0.17-0.31 0.35-0.3 0.18 0.013 0.317 0.168 0.304 0.345-0.036 0.51-0.042 0.974-0.013 1.419zM45.633 13.426c-0.020 0.164-0.16 0.284-0.323 0.284-0.013 0-0.026 0-0.042-0.003-0.176-0.023-0.304-0.181-0.284-0.358l0.157-1.245c0.023-0.174 0.183-0.3 0.366-0.281 0.18 0.023 0.307 0.184 0.284 0.361l-0.157 1.242z"></path>
<path fill="#ff6b09" style="fill: var(--color2, #ff6b09)" d="M55.336 4.412c-0.178-0.027-0.3-0.192-0.273-0.367 0.020-0.131 0.138-0.802 0.459-1.139 0.123-0.13 0.33-0.137 0.462-0.015s0.138 0.326 0.015 0.456c-0.136 0.143-0.251 0.552-0.29 0.796-0.028 0.174-0.192 0.296-0.373 0.269z"></path>
<path fill="#ff6b09" style="fill: var(--color2, #ff6b09)" d="M43.424 6.018c-0.063-0.24-0.218-0.635-0.367-0.764-0.136-0.117-0.149-0.321-0.030-0.455s0.325-0.148 0.461-0.030c0.352 0.305 0.536 0.961 0.569 1.089 0.045 0.172-0.061 0.348-0.235 0.392-0.178 0.044-0.353-0.062-0.398-0.232z"></path>
</symbol>
<symbol id="icon-logo-main" viewBox="0 0 88 32">
<path fill="#111518" style="fill: var(--color3, #111518)" d="M12.345 4.825v12.913h-3.67v-5.036h-5.005v5.036h-3.67v-12.913h3.67v4.851h5.005v-4.851h3.67z"></path>
<path fill="#111518" style="fill: var(--color3, #111518)" d="M25.777 12.757c0 0.025-0.019 0.314-0.056 0.867h-7.303c0.148 0.517 0.433 0.916 0.853 1.199 0.433 0.271 0.97 0.406 1.613 0.406 0.482 0 0.896-0.068 1.242-0.203 0.358-0.135 0.717-0.357 1.075-0.664l1.854 1.918c-0.976 1.082-2.403 1.623-4.282 1.623-1.174 0-2.206-0.221-3.096-0.664s-1.582-1.058-2.076-1.845c-0.482-0.787-0.723-1.679-0.723-2.675 0-0.984 0.235-1.863 0.704-2.638 0.482-0.787 1.143-1.402 1.983-1.845s1.786-0.664 2.836-0.664c1.001 0 1.909 0.209 2.725 0.627 0.816 0.406 1.458 1.002 1.928 1.789 0.482 0.775 0.723 1.697 0.723 2.767zM20.42 10.064c-0.544 0-1.001 0.154-1.372 0.461-0.358 0.307-0.587 0.726-0.686 1.254h4.115c-0.099-0.529-0.334-0.947-0.704-1.254-0.358-0.307-0.809-0.461-1.353-0.461z"></path>
<path fill="#111518" style="fill: var(--color3, #111518)" d="M28.142 4.050h3.522v13.688h-3.522v-13.688z"></path>
<path fill="#111518" style="fill: var(--color3, #111518)" d="M34.694 4.050h3.522v13.688h-3.522v-13.688z"></path>
<path fill="#ff6b09" style="fill: var(--color2, #ff6b09)" d="M4 27.066v3.862h-0.894v-1.583h-1.754v1.583h-0.894v-3.862h0.894v1.523h1.754v-1.523h0.894zM8.897 30.211v0.717h-2.99v-3.862h2.919v0.717h-2.030v0.839h1.793v0.695h-1.793v0.894h2.102zM10.601 27.066h0.894v3.134h1.937v0.728h-2.83v-3.862zM14.924 27.066h0.894v3.134h1.937v0.728h-2.83v-3.862zM19.247 27.066h0.894v3.862h-0.894v-3.862zM23.32 30.995c-0.305 0-0.601-0.041-0.888-0.121-0.283-0.085-0.511-0.193-0.684-0.326l0.303-0.673c0.166 0.121 0.362 0.219 0.59 0.292s0.456 0.11 0.684 0.11c0.254 0 0.441-0.037 0.563-0.11 0.121-0.077 0.182-0.178 0.182-0.303 0-0.092-0.037-0.167-0.11-0.226-0.070-0.063-0.162-0.112-0.276-0.149-0.11-0.037-0.261-0.077-0.452-0.121-0.294-0.070-0.535-0.14-0.723-0.21s-0.349-0.182-0.486-0.337c-0.132-0.154-0.199-0.36-0.199-0.618 0-0.224 0.061-0.427 0.182-0.607 0.121-0.184 0.303-0.329 0.546-0.436 0.246-0.107 0.546-0.16 0.899-0.16 0.246 0 0.487 0.029 0.723 0.088s0.441 0.143 0.618 0.254l-0.276 0.679c-0.357-0.202-0.714-0.303-1.070-0.303-0.25 0-0.436 0.041-0.557 0.121-0.118 0.081-0.177 0.188-0.177 0.32s0.068 0.232 0.204 0.298c0.14 0.063 0.351 0.125 0.634 0.188 0.294 0.070 0.535 0.14 0.723 0.21s0.348 0.18 0.48 0.331c0.136 0.151 0.204 0.355 0.204 0.612 0 0.221-0.063 0.423-0.188 0.607-0.121 0.18-0.305 0.324-0.552 0.43s-0.546 0.16-0.899 0.16zM30.104 27.066v3.862h-0.894v-1.583h-1.754v1.583h-0.894v-3.862h0.894v1.523h1.754v-1.523h0.894z"></path>
<path fill="#111518" style="fill: var(--color3, #111518)" d="M37.557 30.211v0.717h-2.99v-3.862h2.919v0.717h-2.030v0.839h1.793v0.695h-1.793v0.894h2.102zM42.803 27.066v3.862h-0.734l-1.926-2.345v2.345h-0.883v-3.862h0.739l1.92 2.345v-2.345h0.883zM47.32 28.937h0.817v1.567c-0.21 0.158-0.452 0.279-0.728 0.364s-0.554 0.127-0.833 0.127c-0.401 0-0.761-0.085-1.081-0.254-0.32-0.173-0.572-0.41-0.756-0.712-0.18-0.305-0.27-0.649-0.27-1.032s0.090-0.725 0.27-1.026c0.184-0.305 0.438-0.543 0.761-0.712 0.324-0.173 0.688-0.259 1.092-0.259 0.338 0 0.646 0.057 0.921 0.171s0.508 0.279 0.695 0.497l-0.574 0.53c-0.276-0.291-0.609-0.436-0.999-0.436-0.246 0-0.465 0.052-0.657 0.154s-0.34 0.248-0.447 0.436c-0.107 0.188-0.16 0.403-0.16 0.646 0 0.239 0.053 0.452 0.16 0.64s0.254 0.335 0.441 0.441c0.191 0.103 0.408 0.154 0.651 0.154 0.257 0 0.489-0.055 0.695-0.166v-1.131zM49.96 27.066h0.894v3.134h1.937v0.728h-2.83v-3.862zM54.282 27.066h0.894v3.862h-0.894v-3.862zM58.355 30.995c-0.305 0-0.601-0.041-0.888-0.121-0.283-0.085-0.511-0.193-0.684-0.326l0.303-0.673c0.166 0.121 0.362 0.219 0.59 0.292s0.456 0.11 0.684 0.11c0.254 0 0.441-0.037 0.563-0.11 0.121-0.077 0.182-0.178 0.182-0.303 0-0.092-0.037-0.167-0.11-0.226-0.070-0.063-0.162-0.112-0.276-0.149-0.11-0.037-0.261-0.077-0.452-0.121-0.294-0.070-0.535-0.14-0.723-0.21s-0.349-0.182-0.486-0.337c-0.132-0.154-0.199-0.36-0.199-0.618 0-0.224 0.061-0.427 0.182-0.607 0.121-0.184 0.303-0.329 0.546-0.436 0.246-0.107 0.546-0.16 0.899-0.16 0.246 0 0.487 0.029 0.723 0.088s0.441 0.143 0.618 0.254l-0.276 0.679c-0.357-0.202-0.714-0.303-1.070-0.303-0.25 0-0.436 0.041-0.557 0.121-0.118 0.081-0.177 0.188-0.177 0.32s0.068 0.232 0.204 0.298c0.14 0.063 0.351 0.125 0.634 0.188 0.294 0.070 0.535 0.14 0.723 0.21s0.348 0.18 0.48 0.331c0.136 0.151 0.204 0.355 0.204 0.612 0 0.221-0.062 0.423-0.188 0.607-0.121 0.18-0.305 0.324-0.552 0.43s-0.546 0.16-0.899 0.16zM65.139 27.066v3.862h-0.894v-1.583h-1.754v1.583h-0.894v-3.862h0.894v1.523h1.754v-1.523h0.894z"></path>
<path fill="#111518" style="fill: var(--color3, #111518)" d="M73.153 14.915v2.822h-10.417v-12.913h10.176v2.822h-6.543v2.177h5.765v2.73h-5.765v2.361h6.784z"></path>
<path fill="#111518" style="fill: var(--color3, #111518)" d="M88.276 4.824v12.913h-3.021l-5.728-6.881v6.881h-3.596v-12.913h3.021l5.728 6.881v-6.881h3.596z"></path>
<path fill="#ff6b09" style="fill: var(--color2, #ff6b09)" d="M57.546 11.037c-0.189-0.422-0.451-0.838-0.833-1.319-0.964-1.206-1.258-3.896-1.261-3.922-0.013-0.129-0.105-0.235-0.225-0.274-0.124-0.039-0.258-0.003-0.346 0.094-1.15 1.28-0.667 3.257-0.405 4.047 0.072 0.216 0.15 0.471 0.206 0.729 0.425 2.086-0.395 3.031-0.588 3.222-0.186 0.052-0.314 0.026-0.431-0.1-0.405-0.442-0.539-1.89-0.35-3.776 0.039-0.384 0.029-0.729-0.026-1.051-0.4-2.319-1.865-3.806-2.238-4.328-1.026-1.509-1.131-4.022-1.134-4.044-0.003-0.119-0.072-0.226-0.18-0.277-0.105-0.052-0.232-0.045-0.33 0.023-1.712 1.158-1.565 3.947-1.327 5.505 0.056 0.361 0.163 0.729 0.35 1.193 0.663 1.661-0.131 3.805-0.137 3.825s-0.013 0.035-0.016 0.055c-0.101 0.529-0.271 0.845-0.461 0.845-0.020 0-0.039-0.003-0.062-0.010-0.232-0.048-0.353-0.294-0.356-0.506-0.013-2.751-2.787-3.676-2.817-3.686-0.124-0.039-0.261-0.003-0.346 0.097-0.088 0.1-0.105 0.239-0.046 0.355 0.033 0.068 0.137 0.364 0.065 1.413-0.062 0.942-0.235 1.874-0.513 2.767-0.66 2.141-0.555 4.17-0.549 4.267 0.507 5.492 8.444 6.455 13.155 3.36 0.516-0.339 0.938-0.726 1.248-1.151 1.738-2.387 0.716-5.628-0.046-7.35zM45.473 16.284c0.010 0.177-0.127 0.329-0.307 0.339h-0.020c-0.173 0-0.317-0.132-0.327-0.303-0.029-0.471-0.023-0.964 0.013-1.5 0.013-0.177 0.17-0.31 0.35-0.3 0.18 0.013 0.317 0.168 0.304 0.345-0.036 0.51-0.042 0.974-0.013 1.419zM45.633 13.426c-0.020 0.164-0.16 0.284-0.323 0.284-0.013 0-0.026 0-0.042-0.003-0.176-0.023-0.304-0.181-0.284-0.358l0.157-1.245c0.023-0.174 0.183-0.3 0.366-0.281 0.18 0.023 0.307 0.184 0.284 0.361l-0.157 1.242z"></path>
<path fill="#ff6b09" style="fill: var(--color2, #ff6b09)" d="M55.336 4.412c-0.178-0.027-0.3-0.192-0.273-0.367 0.020-0.131 0.138-0.802 0.459-1.139 0.123-0.13 0.33-0.137 0.462-0.015s0.138 0.326 0.015 0.456c-0.136 0.143-0.251 0.552-0.29 0.796-0.028 0.174-0.192 0.296-0.373 0.269z"></path>
<path fill="#ff6b09" style="fill: var(--color2, #ff6b09)" d="M43.424 6.018c-0.063-0.24-0.218-0.635-0.367-0.764-0.136-0.117-0.149-0.321-0.030-0.455s0.325-0.148 0.461-0.030c0.352 0.305 0.536 0.961 0.569 1.089 0.045 0.172-0.061 0.348-0.235 0.392-0.178 0.044-0.353-0.062-0.398-0.232z"></path>
</symbol>
<symbol id="icon-menu" viewBox="0 0 32 32">
<path d="M6.4 11.733v-2.133h19.2v2.133h-19.2zM6.4 17.067h19.2v-2.133h-19.2v2.133zM6.4 22.4h19.2v-2.133h-19.2v2.133z"></path>
</symbol>
</defs>
</svg>
